<?xml version="1.0" encoding="UTF-8" standalone="no"?>
<!DOCTYPE svg PUBLIC "-//W3C//DTD SVG 1.1//EN" "http://www.w3.org/Graphics/SVG/1.1/DTD/svg11.dtd">
<svg width="100%" height="100%" viewBox="0 0 847 304" version="1.1" xmlns="http://www.w3.org/2000/svg" xmlns:xlink="http://www.w3.org/1999/xlink" xml:space="preserve" xmlns:serif="http://www.serif.com/" style="fill-rule:evenodd;clip-rule:evenodd;stroke-linecap:round;stroke-linejoin:round;stroke-miterlimit:1.5;">
    <g transform="matrix(1,0,0,1,-7668.93,-3656.07)">
        <g transform="matrix(0.778404,0,0,0.687804,3242.13,2924.86)">
            <g transform="matrix(2.54404,0,0,2.54404,-10047,-3141.55)">
                <g transform="matrix(0.0948541,0,0,0.107349,6126.07,1637.85)">
                    <path d="M2220.38,1746.74L2748.43,1174.32L2504.03,966.449L2220.38,966.449M2748.43,1174.32L2220.38,1174.32M2220.38,966.449L2590.69,1174.32L2289.54,1547.98L2220.38,1174.32L2504.03,966.449L2590.69,1174.32L2403.72,1547.98L2220.38,1746.74L2289.54,1547.98L2430.91,1174.32L2381,1056.61L2504.03,966.449L2685.03,1174.32L2403.72,1547.98M2220.38,1746.74L1692.33,1174.32L1936.72,966.449L2220.38,966.449M1692.33,1174.32L2220.38,1174.32M2220.38,966.449L1850.06,1174.32L2151.21,1547.98L2220.38,1174.32L1936.72,966.449L1850.06,1174.32L2037.03,1547.98L2220.38,1746.74L2151.21,1547.98L2009.85,1174.32L2059.76,1056.61L1936.72,966.449L1755.73,1174.32L2037.03,1547.98" style="fill:none;stroke:white;stroke-width:19.4px;"/>
                </g>
                <g transform="matrix(0.180997,0,0,0.204839,4751.49,1225.45)">
                    <path d="M7937.47,2105.29L7937.47,2230.85L8057.45,2230.85L8057.45,2247.13L7937.47,2247.13L7937.47,2373.54L8070.31,2373.54L8070.31,2389.83L7918.19,2389.83L7918.19,2089.01L8070.31,2089.01L8070.31,2105.29L7937.47,2105.29Z" style="fill:white;fill-rule:nonzero;"/>
                    <path d="M8147.87,2373.54L8259.71,2373.54L8259.71,2389.83L8128.59,2389.83L8128.59,2089.01L8147.87,2089.01L8147.87,2373.54Z" style="fill:white;fill-rule:nonzero;"/>
                    <path d="M8322.7,2105.29L8322.7,2230.85L8442.69,2230.85L8442.69,2247.13L8322.7,2247.13L8322.7,2373.54L8455.54,2373.54L8455.54,2389.83L8303.42,2389.83L8303.42,2089.01L8455.54,2089.01L8455.54,2105.29L8322.7,2105.29Z" style="fill:white;fill-rule:nonzero;"/>
                    <path d="M8501.82,2239.85C8501.82,2210.14 8508.03,2183.64 8520.46,2160.36C8532.89,2137.07 8550.03,2118.86 8571.88,2105.72C8593.74,2092.58 8618.23,2086.01 8645.37,2086.01C8679.65,2086.01 8708.51,2094.01 8731.93,2110.01C8755.36,2126.01 8772.5,2148.43 8783.35,2177.28L8761.07,2177.28C8752.5,2154.43 8738.29,2136.36 8718.43,2123.08C8698.58,2109.79 8674.23,2103.15 8645.37,2103.15C8622.23,2103.15 8601.24,2108.65 8582.38,2119.65C8563.53,2130.65 8548.67,2146.5 8537.82,2167.21C8526.96,2187.93 8521.53,2212.14 8521.53,2239.85C8521.53,2267.27 8526.96,2291.2 8537.82,2311.62C8548.67,2332.05 8563.53,2347.83 8582.38,2358.97C8601.24,2370.11 8622.23,2375.68 8645.37,2375.68C8674.23,2375.68 8698.58,2369.04 8718.43,2355.76C8738.29,2342.47 8752.5,2324.41 8761.07,2301.55L8783.35,2301.55C8772.5,2330.41 8755.36,2352.83 8731.93,2368.83C8708.51,2384.83 8679.65,2392.83 8645.37,2392.83C8618.23,2392.83 8593.74,2386.33 8571.88,2373.33C8550.03,2360.33 8532.89,2342.19 8520.46,2318.91C8508.03,2295.62 8501.82,2269.27 8501.82,2239.85Z" style="fill:white;fill-rule:nonzero;"/>
                    <path d="M9010.04,2089.01L9010.04,2105.29L8924.34,2105.29L8924.34,2389.83L8905.05,2389.83L8905.05,2105.29L8819.35,2105.29L8819.35,2089.01L9010.04,2089.01Z" style="fill:white;fill-rule:nonzero;"/>
                    <path d="M9218.3,2389.83L9141.16,2261.7L9075.17,2261.7L9075.17,2389.83L9055.89,2389.83L9055.89,2089.01L9138.59,2089.01C9172.01,2089.01 9197.08,2096.87 9213.8,2112.58C9230.51,2128.29 9238.86,2149.14 9238.86,2175.14C9238.86,2198.28 9232.36,2217.35 9219.37,2232.35C9206.37,2247.35 9187.44,2256.56 9162.59,2259.99L9241.43,2389.83L9218.3,2389.83ZM9075.17,2245.42L9139.45,2245.42C9166.02,2245.42 9185.87,2238.99 9199.01,2226.13C9212.15,2213.28 9218.72,2196.28 9218.72,2175.14C9218.72,2129.15 9192.01,2106.15 9138.59,2106.15L9075.17,2106.15L9075.17,2245.42Z" style="fill:white;fill-rule:nonzero;"/>
                    <path d="M9430.41,2393.25C9402.7,2393.25 9377.7,2386.76 9355.42,2373.76C9333.14,2360.76 9315.71,2342.55 9303.14,2319.12C9290.57,2295.7 9284.29,2269.27 9284.29,2239.85C9284.29,2210.14 9290.57,2183.64 9303.14,2160.36C9315.71,2137.07 9333.14,2118.93 9355.42,2105.94C9377.7,2092.94 9402.7,2086.44 9430.41,2086.44C9458.12,2086.44 9483.12,2092.94 9505.4,2105.94C9527.68,2118.93 9545.11,2137.07 9557.68,2160.36C9570.25,2183.64 9576.53,2210.14 9576.53,2239.85C9576.53,2269.27 9570.25,2295.7 9557.68,2319.12C9545.11,2342.55 9527.68,2360.76 9505.4,2373.76C9483.12,2386.76 9458.12,2393.25 9430.41,2393.25ZM9430.41,2376.11C9454.12,2376.11 9475.55,2370.54 9494.68,2359.4C9513.83,2348.26 9528.9,2332.41 9539.89,2311.84C9550.89,2291.27 9556.39,2267.27 9556.39,2239.85C9556.39,2212.14 9550.89,2188 9539.89,2167.43C9528.9,2146.86 9513.83,2131 9494.68,2119.86C9475.55,2108.72 9454.12,2103.15 9430.41,2103.15C9406.7,2103.15 9385.27,2108.72 9366.13,2119.86C9346.99,2131 9331.85,2146.86 9320.71,2167.43C9309.57,2188 9304,2212.14 9304,2239.85C9304,2267.27 9309.57,2291.27 9320.71,2311.84C9331.85,2332.41 9346.99,2348.26 9366.13,2359.4C9385.27,2370.54 9406.7,2376.11 9430.41,2376.11Z" style="fill:white;fill-rule:nonzero;"/>
                    <path d="M9849.92,2389.83L9830.64,2389.83L9654.09,2120.72L9654.09,2389.83L9634.81,2389.83L9634.81,2089.44L9654.09,2089.44L9830.64,2357.69L9830.64,2089.44L9849.92,2089.44L9849.92,2389.83Z" style="fill:white;fill-rule:nonzero;"/>
                    <rect x="9920.63" y="2089.01" width="19.283" height="300.816" style="fill:white;fill-rule:nonzero;"/>
                    <path d="M9998.62,2239.85C9998.62,2210.14 10004.8,2183.64 10017.3,2160.36C10029.7,2137.07 10046.8,2118.86 10068.7,2105.72C10090.5,2092.58 10115,2086.01 10142.2,2086.01C10176.4,2086.01 10205.3,2094.01 10228.7,2110.01C10252.2,2126.01 10269.3,2148.43 10280.1,2177.28L10257.9,2177.28C10249.3,2154.43 10235.1,2136.36 10215.2,2123.08C10195.4,2109.79 10171,2103.15 10142.2,2103.15C10119,2103.15 10098,2108.65 10079.2,2119.65C10060.3,2130.65 10045.5,2146.5 10034.6,2167.21C10023.8,2187.93 10018.3,2212.14 10018.3,2239.85C10018.3,2267.27 10023.8,2291.2 10034.6,2311.62C10045.5,2332.05 10060.3,2347.83 10079.2,2358.97C10098,2370.11 10119,2375.68 10142.2,2375.68C10171,2375.68 10195.4,2369.04 10215.2,2355.76C10235.1,2342.47 10249.3,2324.41 10257.9,2301.55L10280.1,2301.55C10269.3,2330.41 10252.2,2352.83 10228.7,2368.83C10205.3,2384.83 10176.4,2392.83 10142.2,2392.83C10115,2392.83 10090.5,2386.33 10068.7,2373.33C10046.8,2360.33 10029.7,2342.19 10017.3,2318.91C10004.8,2295.62 9998.62,2269.27 9998.62,2239.85Z" style="fill:white;fill-rule:nonzero;"/>
                </g>
                <g transform="matrix(0.120143,0,0,0.135969,5532.66,1489.01)">
                    <path d="M7732.52,2070.19C7719.6,2036.18 7698.19,2009.06 7668.27,1988.83C7638.35,1968.59 7602.94,1958.48 7562.05,1958.48C7526.32,1958.48 7494.03,1966.87 7465.19,1983.66C7436.34,2000.45 7413.53,2024.34 7396.74,2055.34C7379.95,2086.33 7371.55,2122.49 7371.55,2163.82C7371.55,2205.15 7379.95,2241.31 7396.74,2272.3C7413.53,2303.3 7436.34,2327.08 7465.19,2343.66C7494.03,2360.23 7526.32,2368.52 7562.05,2368.52C7596.49,2368.52 7627.69,2360.77 7655.68,2345.27C7683.66,2329.77 7706.04,2307.71 7722.83,2279.08C7739.62,2250.45 7748.88,2216.99 7750.6,2178.67L7548.49,2178.67L7548.49,2154.13L7780.3,2154.13L7780.3,2173.51C7779.01,2215.69 7768.9,2253.58 7749.95,2287.15C7731.01,2320.73 7705.18,2346.99 7672.47,2365.93C7639.75,2384.88 7602.94,2394.35 7562.05,2394.35C7520.29,2394.35 7482.62,2384.55 7449.04,2364.97C7415.46,2345.38 7389.2,2318.04 7370.26,2282.96C7351.32,2247.87 7341.85,2208.16 7341.85,2163.82C7341.85,2119.05 7351.32,2079.12 7370.26,2044.04C7389.2,2008.95 7415.46,1981.62 7449.04,1962.03C7482.62,1942.44 7520.29,1932.65 7562.05,1932.65C7610.69,1932.65 7652.77,1944.81 7688.29,1969.13C7723.8,1993.45 7749.74,2027.14 7766.1,2070.19L7732.52,2070.19Z" style="fill:white;fill-rule:nonzero;"/>
                    <path d="M7897.18,1961.06L7897.18,2150.26L8077.99,2150.26L8077.99,2174.8L7897.18,2174.8L7897.18,2365.29L8097.36,2365.29L8097.36,2389.83L7868.12,2389.83L7868.12,1936.52L8097.36,1936.52L8097.36,1961.06L7897.18,1961.06Z" style="fill:white;fill-rule:nonzero;"/>
                    <path d="M8608.13,1946.21L8608.13,2389.83L8579.08,2389.83L8579.08,2006.91L8408.6,2389.83L8385.35,2389.83L8214.24,2006.91L8214.24,2389.83L8185.18,2389.83L8185.18,1946.21L8216.17,1946.21L8396.98,2351.73L8577.78,1946.21L8608.13,1946.21Z" style="fill:white;fill-rule:nonzero;"/>
                    <path d="M8845.76,2394.35C8816.49,2394.35 8790.88,2389.18 8768.92,2378.85C8746.97,2368.52 8729.85,2354.53 8717.59,2336.88C8705.32,2319.23 8698.32,2299.64 8696.6,2278.11L8726.95,2278.11C8730.39,2301.79 8741.48,2322.89 8760.2,2341.4C8778.93,2359.91 8807.45,2369.16 8845.76,2369.16C8868.15,2369.16 8887.63,2365.07 8904.2,2356.89C8920.77,2348.71 8933.58,2337.52 8942.62,2323.32C8951.66,2309.11 8956.18,2293.4 8956.18,2276.18C8956.18,2254.22 8950.91,2236.79 8940.36,2223.87C8929.82,2210.96 8916.69,2201.27 8900.97,2194.81C8885.26,2188.36 8864.06,2181.47 8837.37,2174.15C8808.09,2166.4 8784.53,2158.65 8766.66,2150.91C8748.8,2143.16 8733.73,2131.21 8721.46,2115.07C8709.19,2098.92 8703.06,2076.86 8703.06,2048.88C8703.06,2027.35 8708.76,2007.66 8720.17,1989.79C8731.58,1971.93 8747.83,1957.83 8768.92,1947.5C8790.01,1937.17 8814.34,1932 8841.89,1932C8881.92,1932 8914.21,1941.9 8938.75,1961.7C8963.29,1981.51 8977.92,2005.83 8982.66,2034.67L8951.66,2034.67C8949.08,2023.05 8943.38,2011.21 8934.55,1999.16C8925.73,1987.1 8913.24,1977.1 8897.1,1969.13C8880.95,1961.17 8861.69,1957.18 8839.31,1957.18C8809.17,1957.18 8783.77,1965.47 8763.11,1982.05C8742.44,1998.62 8732.11,2020.68 8732.11,2048.23C8732.11,2070.19 8737.5,2087.73 8748.26,2100.86C8759.02,2113.99 8772.26,2123.89 8787.97,2130.56C8803.68,2137.24 8824.88,2144.02 8851.57,2150.91C8881.28,2159.08 8904.85,2166.94 8922.28,2174.47C8939.72,2182.01 8954.57,2193.85 8966.84,2209.99C8979.11,2226.13 8985.24,2247.98 8985.24,2275.53C8985.24,2295.76 8979.86,2314.92 8969.1,2333C8958.34,2351.08 8942.51,2365.83 8921.64,2377.23C8900.76,2388.64 8875.47,2394.35 8845.76,2394.35Z" style="fill:white;fill-rule:nonzero;"/>
                </g>
            </g>
        </g>
    </g>
</svg>
