<?xml version="1.0" encoding="UTF-8" standalone="no"?>
<!DOCTYPE svg PUBLIC "-//W3C//DTD SVG 1.1//EN" "http://www.w3.org/Graphics/SVG/1.1/DTD/svg11.dtd">
<svg width="100%" height="100%" viewBox="0 0 616 458" version="1.1" xmlns="http://www.w3.org/2000/svg" xmlns:xlink="http://www.w3.org/1999/xlink" xml:space="preserve" xmlns:serif="http://www.serif.com/" style="fill-rule:evenodd;clip-rule:evenodd;stroke-linecap:round;stroke-linejoin:round;stroke-miterlimit:1.5;">
    <g transform="matrix(1,0,0,1,-6168.52,-2275.27)">
        <g transform="matrix(0.778404,0,0,0.687804,1626.34,1622)">
            <g transform="matrix(0.735614,0,0,0.832511,4597.49,153.292)">
                <path d="M2220.38,1746.74L2748.43,1174.32L2504.03,966.449L2220.38,966.449M2748.43,1174.32L2220.38,1174.32M2220.38,966.449L2590.69,1174.32L2289.54,1547.98L2220.38,1174.32L2504.03,966.449L2590.69,1174.32L2403.72,1547.98L2220.38,1746.74L2289.54,1547.98L2430.91,1174.32L2381,1056.61L2504.03,966.449L2685.03,1174.32L2403.72,1547.98M2220.38,1746.74L1692.33,1174.32L1936.72,966.449L2220.38,966.449M1692.33,1174.32L2220.38,1174.32M2220.38,966.449L1850.06,1174.32L2151.21,1547.98L2220.38,1174.32L1936.72,966.449L1850.06,1174.32L2037.03,1547.98L2220.38,1746.74L2151.21,1547.98L2009.85,1174.32L2059.76,1056.61L1936.72,966.449L1755.73,1174.32L2037.03,1547.98" style="fill:none;stroke:white;stroke-width:19.4px;"/>
            </g>
        </g>
    </g>
</svg>
